<?xml version="1.0" encoding="UTF-8"?>
<svg id="_Слой_1" data-name="Слой 1" xmlns="http://www.w3.org/2000/svg" viewBox="0 0 1276.5 364.55">
  <defs>
    <style>
      .cls-1 {
        fill: #fff;
        stroke-width: 0px;
      }
    </style>
  </defs>
  <g>
    <polygon class="cls-1" points="316.87 320.04 297.56 308.89 370.65 182.27 298.46 57.24 317.77 46.09 396.41 182.27 316.87 320.04"/>
    <polygon class="cls-1" points="237.27 364.55 80.69 364.55 0 224.78 19.31 213.63 93.57 342.26 237.27 342.26 237.27 364.55"/>
    <polygon class="cls-1" points="19.31 150.91 0 139.76 80.7 0 238.06 0 238.06 22.3 93.57 22.3 19.31 150.91"/>
    <path class="cls-1" d="m190.36,297c-8.44,0-16.93-.98-25.25-2.91l-8.53-1.98-.1-8.76c-.13-12.68-10.56-23-23.23-23-3.97,0-7.74.97-11.2,2.88l-7.67,4.24-5.93-6.44c-11.54-12.55-20.15-27.82-24.91-44.15l-2.36-8.09,7.16-4.47c6.86-4.3,10.97-11.66,10.97-19.71s-3.96-15.15-10.6-19.48l-7.07-4.62,2.52-8.06c5.58-17.8,15.71-34.09,29.29-47.1l5.07-4.85,6.56,2.47c2.68,1.01,5.43,1.52,8.17,1.52,10.91,0,20.48-7.74,22.73-18.4l1.46-6.88,6.84-1.65c8.57-2.06,17.34-3.11,26.08-3.11v22.3c-4.93,0-9.87.42-14.77,1.24-6.78,17.06-23.54,28.79-42.35,28.79-2.93,0-5.84-.29-8.72-.86-7.03,7.72-12.64,16.61-16.57,26.2,8.66,8.48,13.64,20.11,13.64,32.48s-5.21,24.57-14.27,33.09c3.09,8,7.35,15.56,12.59,22.37,4.3-1.32,8.81-2,13.33-2,21.65,0,39.94,15.35,44.46,35.74,8.62,1.25,17.28,1.21,25.86-.08,4.56-20.34,22.86-35.65,44.44-35.65,4.37,0,8.72.64,12.9,1.87,5.19-6.77,9.41-14.29,12.48-22.24-9.06-8.52-14.27-20.37-14.27-33.09l.03-1.78,22.3.37-.03,1.59c0,7.86,4.11,15.22,10.97,19.52l7.16,4.47-2.36,8.09c-4.73,16.24-13.28,31.44-24.71,43.94l-5.85,6.41-7.65-4.12c-3.4-1.82-7.09-2.75-10.97-2.75-12.63,0-23.05,10.28-23.23,22.92l-.12,8.67-8.45,2.01c-8.5,2.03-17.21,3.06-25.85,3.06"/>
    <rect class="cls-1" x="209.59" y="72.17" width="22.3" height="94.86"/>
    <rect class="cls-1" x="258.59" y="111.25" width="22.3" height="55.78"/>
    <path class="cls-1" d="m192.67,221.5c-21.63,0-39.21-17.6-39.21-39.22s17.59-39.21,39.21-39.21v22.3c-9.33,0-16.92,7.59-16.92,16.92s7.59,16.93,16.92,16.93,16.92-7.59,16.92-16.93h22.3c0,21.63-17.59,39.22-39.21,39.22"/>
  </g>
  <g>
    <path class="cls-1" d="m539.44,160.16h-16.32v-47.7l-48.33,47.7h-5.69v-79.96h16.32v47.57l48.71-47.57h5.31v79.96Z"/>
    <path class="cls-1" d="m616.1,160.16h-17.46v-24.67h-23.66v24.67h-17.46v-63.01h17.46v24.67h23.66v-24.67h17.46v63.01Z"/>
    <path class="cls-1" d="m671.89,135.11h-6.07l-17.46,25.05h-21.89l25.31-32.52-21.76-30.49h19.86l16.19,24.93h5.82v-24.93h16.32v24.93h5.82l16.19-24.93h19.86l-21.76,30.49,25.31,32.52h-21.89l-17.46-25.05h-6.07v25.05h-16.32v-25.05Z"/>
    <path class="cls-1" d="m797.38,157.88c-5.57,3.16-14.55,4.43-22.39,4.43-25.05,0-35.93-15.06-35.93-33.91,0-22.65,16.19-33.27,33.4-33.27,22.14,0,30.24,15.05,30.24,31.5,0,2.66-.38,6.7-.76,9.23h-45.55c1.39,8.86,10,12.27,20.75,12.27,6.33,0,13.41-1.77,20.24-3.92v13.66Zm-11.26-33.53c0-10.12-5.57-14.93-13.66-14.93-9.62,0-15.94,5.57-16.7,14.93h30.36Z"/>
    <path class="cls-1" d="m875.7,160.16h-17.46v-24.67h-23.66v24.67h-17.46v-63.01h17.46v24.67h23.66v-24.67h17.46v63.01Z"/>
    <path class="cls-1" d="m947.3,157.88c-5.57,3.16-14.55,4.43-22.39,4.43-25.05,0-35.93-15.06-35.93-33.91,0-22.65,16.19-33.27,33.4-33.27,22.14,0,30.24,15.05,30.24,31.5,0,2.66-.38,6.7-.76,9.23h-45.55c1.39,8.86,10,12.27,20.75,12.27,6.33,0,13.41-1.77,20.24-3.92v13.66Zm-11.26-33.53c0-10.12-5.57-14.93-13.66-14.93-9.62,0-15.94,5.57-16.7,14.93h30.36Z"/>
    <path class="cls-1" d="m984.49,184.2h-17.46v-87.05h15.06l.76,9.87c4.56-7.97,11.89-12.02,21.64-12.02,20.12,0,29.48,14.42,29.48,32.39s-11.13,34.92-31.25,34.92c-6.84,0-13.29-2.28-18.22-7.85v29.73Zm31.63-56.43c0-10.5-4.81-18.22-15.69-18.22-6.07,0-12.53,2.53-16.07,5.82v26.82c4.68,3.92,9.87,5.31,16.07,5.31,11.13-.13,15.69-9.11,15.69-19.74Z"/>
    <path class="cls-1" d="m1105.06,160.16h-17.46v-24.67h-23.66v24.67h-17.46v-63.01h17.46v24.67h23.66v-24.67h17.46v63.01Z"/>
    <path class="cls-1" d="m1122,97.15h17.46v22.01c4.56-1.26,7.72-1.64,11.64-1.64,16.83,0,26.32,8.86,26.32,20.88,0,13.03-8.86,21.76-24.93,21.76h-30.49v-63.01Zm17.46,49.98h10.13c7.97,0,10.88-4.05,10.88-8.73,0-5.57-4.43-8.22-11.77-8.22-3.54,0-6.07.38-9.23,1.27v15.69Zm43.52-49.98h17.46v63.01h-17.46v-63.01Z"/>
    <path class="cls-1" d="m1277.36,160.16h-16.32v-35.43l-37.2,35.43h-6.46v-63.01h16.32v35.43l37.2-35.43h6.46v63.01Zm-51.25-89.2h13.67c0,5.82,3.41,9.23,9.36,9.23s9.36-3.42,9.36-9.23h13.67c-.13,13.28-9.74,21.64-23.03,21.64s-22.9-8.35-23.03-21.64Z"/>
    <path class="cls-1" d="m467.95,223.66h17.46v24.93h5.57l17.59-24.93h20.87l-23.53,30.49,25.81,32.52h-21.51l-18.72-25.05h-6.07v25.05h-17.46v-63.01Z"/>
    <path class="cls-1" d="m599.66,223.66v63.01h-16.95v-48.84h-17.71c0,42.51-6.71,49.47-22.52,49.47-2.15,0-6.07-.25-8.6-.76l1.27-13.41c1.01.13,2.4.13,3.04.13,7.46,0,11.26-4.3,11.26-49.6h50.23Z"/>
    <path class="cls-1" d="m659.49,286.67l-1.64-8.73c-6.07,7.72-12.91,10.12-24.16,10.12-13.41,0-20.75-10.12-20.75-20.88,0-16.07,12.65-22.14,27.07-22.14,5.06,0,11.52.89,15.31,2.4v-2.28c0-7.85-6.7-9.62-12.78-9.62-10.25,0-17.97,2.4-22.78,4.81v-15.18c7.09-2.28,15.56-3.67,25.18-3.67,15.06,0,27.08,6.07,27.08,25.81v39.35h-12.53Zm-4.17-27.2c-3.03-1.9-6.96-2.91-11.51-2.91-9.11,0-13.41,3.29-13.41,10.25,0,4.81,3.54,8.48,9.74,8.48,5.69,0,11.89-3.04,15.18-8.6v-7.21Z"/>
    <path class="cls-1" d="m738.18,240.11c-3.67-2.28-10.5-3.92-16.83-3.92-11.77,0-18.22,6.58-18.22,18.85s6.83,18.98,16.32,18.98c6.45,0,14.17-1.26,19.48-4.43v15.18c-5.82,2.91-13.92,4.05-19.61,4.05-19.23,0-34.03-12.4-34.03-33.27s13.41-34.03,34.67-34.03c5.06,0,13.16,1.01,18.22,3.42v15.18Z"/>
    <path class="cls-1" d="m801.05,240.11c-3.67-2.28-10.5-3.92-16.83-3.92-11.77,0-18.22,6.58-18.22,18.85s6.83,18.98,16.32,18.98c6.45,0,14.17-1.26,19.48-4.43v15.18c-5.82,2.91-13.92,4.05-19.61,4.05-19.23,0-34.03-12.4-34.03-33.27s13.41-34.03,34.67-34.03c5.06,0,13.16,1.01,18.22,3.42v15.18Z"/>
  </g>
</svg>