<svg width="800" height="800" viewBox="0 0 800 800" fill="none" xmlns="http://www.w3.org/2000/svg">
<path d="M300 566.667C328.346 545.657 362.82 533.333 400 533.333C437.18 533.333 471.653 545.657 500 566.667" stroke="white" stroke-width="50" stroke-linecap="round"/>
<path d="M500 400C518.409 400 533.333 377.614 533.333 350C533.333 322.386 518.409 300 500 300C481.59 300 466.667 322.386 466.667 350C466.667 377.614 481.59 400 500 400Z" fill="white"/>
<path d="M300 400C318.41 400 333.333 377.614 333.333 350C333.333 322.386 318.41 300 300 300C281.591 300 266.667 322.386 266.667 350C266.667 377.614 281.591 400 300 400Z" fill="white"/>
<path d="M733.333 400C733.333 557.133 733.333 635.703 684.517 684.517C635.703 733.333 557.133 733.333 400 733.333C242.865 733.333 164.298 733.333 115.482 684.517C66.6667 635.703 66.6667 557.133 66.6667 400C66.6667 242.865 66.6667 164.298 115.482 115.482C164.298 66.6667 242.865 66.6667 400 66.6667C557.133 66.6667 635.703 66.6667 684.517 115.482C716.977 147.94 727.853 193.552 731.497 266.667" stroke="white" stroke-width="50" stroke-linecap="round"/>
</svg>
